<svg xmlns:xlink="http://www.w3.org/1999/xlink" xmlns="http://www.w3.org/2000/svg" width="522" height="522" viewBox="0 0 522 522" fill="none">
<rect width="522" height="522" fill="white"/>
<path d="M146.778 299.742H164.908V246.5H146.778V299.742ZM171.183 210.27H158.965V222.571H171.183V210.27ZM102.654 216.254H85.1305V231.694H101.405C111.731 231.694 117.675 236.734 117.675 246.187C117.675 255.639 111.731 260.992 101.405 260.992H85.1305V232.024H67V299.742H85.1305V276.429H102.343C123.307 276.429 135.513 265.087 135.513 245.556C135.513 227.282 123.622 216.254 102.654 216.254ZM183.39 198H146.778V234.841H183.39V198ZM177.442 228.556H153.037V203.968H177.442V228.556ZM283.837 216.254H267.251V231.694H282.895C293.221 231.694 299.169 236.734 299.169 246.187C299.169 255.639 293.221 260.992 282.895 260.992H267.251V232.024H249.121V299.742H267.251V276.429H283.837C304.801 276.429 317.003 265.087 317.003 245.556C317.003 227.282 304.801 216.254 283.837 216.254ZM436.227 235.79L420.58 275.472L404.932 235.79H386.159L411.191 299.742L401.491 324H420.58L455 235.79H436.227ZM354.869 235.472C343.915 235.472 335.465 237.992 326.077 242.718L331.713 255.321C338.283 251.54 344.853 249.651 350.797 249.651C359.559 249.651 363.942 253.433 363.942 260.365V261.627H346.406C330.759 261.627 322.313 268.873 322.313 280.845C322.313 292.5 330.448 300.687 344.215 300.687C352.977 300.687 359.236 297.54 364.241 292.183V299.111H382.08V257.528C381.485 243.98 371.765 235.472 354.869 235.472ZM365.51 278.329C363.634 283.683 358.313 288.095 350.801 288.095C344.546 288.095 340.79 284.944 340.79 279.905C340.79 274.865 344.231 272.659 351.116 272.659H365.51V278.329ZM211.236 285.881C202.474 285.881 196.219 278.948 196.219 268.552C196.219 258.472 202.474 251.54 211.236 251.54C217.495 251.54 222.189 254.06 225.634 258.472L237.852 249.651C232.22 241.143 222.52 236.103 210.314 236.103C191.225 235.79 178.085 249.02 178.085 268.552C178.085 288.083 191.225 301.004 210.314 301.004C223.458 301.004 233.174 295.647 238.479 286.825L225.961 278.321C222.816 283.361 217.81 285.881 211.236 285.881Z" fill="#21C25E"/>
<script xmlns=""/></svg>